<svg xmlns="http://www.w3.org/2000/svg" enable-background="new 0 0 512 512" viewBox="0 0 512 512" id="recipe-book"><g><g><linearGradient id="a" x1="56" x2="456" y1="256" y2="256" gradientUnits="userSpaceOnUse"><stop offset="0" stop-color="#4371c2"></stop><stop offset=".022" stop-color="#486ec1"></stop><stop offset=".222" stop-color="#6d58bc"></stop><stop offset=".421" stop-color="#8a46b8"></stop><stop offset=".618" stop-color="#9e3ab4"></stop><stop offset=".813" stop-color="#ab33b3"></stop><stop offset="1" stop-color="#af30b2"></stop></linearGradient><path fill="url(#a)" d="M406,301c0,5.522-4.478,10-10,10H196c-5.522,0-10-4.478-10-10s4.478-10,10-10h200
			C401.522,291,406,295.478,406,301z M396,331H196c-5.522,0-10,4.478-10,10s4.478,10,10,10h200c5.522,0,10-4.478,10-10
			S401.522,331,396,331z M436,429.28v23.44c11.639,4.128,20,15.243,20,28.28c0,16.542-13.458,30-30,30H126
			c-38.598,0-70-31.402-70-70c0-0.992,0-215.71,0-350c0-49.626,40.374-90,90-90h300c5.522,0,10,4.477,10,10v390
			C456,414.036,447.639,425.152,436,429.28z M156,371h270c3.506,0,6.87,0.61,10,1.72V21H156V371z M76,392.077
			C88.716,379.084,106.428,371,126,371h10V21.712C102.122,26.579,76,55.796,76,91V392.077z M426,411c5.514,0,10-4.486,10-10
			s-4.486-10-10-10H126c-27.57,0-50,22.43-50,50s22.43,50,50,50h300c5.514,0,10-4.486,10-10s-4.486-10-10-10H126
			c-16.542,0-30-13.458-30-30s13.458-30,30-30H426z M126,431c-5.514,0-10,4.486-10,10s4.486,10,10,10h290v-20H126z M416,129.571
			c0,21.344-11.571,40.408-30,50.294V261c0,5.522-4.478,10-10,10H216c-5.522,0-10-4.478-10-10v-81.135
			c-18.429-9.886-30-28.95-30-50.294c0-35.892,32.968-63.162,68.419-56.023C253.762,53.976,273.739,41,296,41
			s42.238,12.976,51.581,32.548C383.051,66.405,416,93.696,416,129.571z M366,221H226v30h140V221z M396,129.571
			c0-20.48-16.662-37.143-37.143-37.143c-4.709,0-9.313,0.879-13.685,2.614c-5.537,2.199-11.772-0.911-13.338-6.671
			C327.453,72.255,312.717,61,296,61s-31.453,11.255-35.835,27.371c-1.564,5.751-7.791,8.873-13.338,6.671
			c-4.371-1.734-8.976-2.614-13.685-2.614c-20.48,0-37.143,16.662-37.143,37.143c0,15.408,9.279,28.989,23.639,34.599
			c3.837,1.499,6.361,5.196,6.361,9.314V201h140v-27.515c0-4.118,2.524-7.815,6.361-9.314C386.721,158.56,396,144.979,396,129.571z"></path></g></g></svg>